<?xml version="1.0" encoding="UTF-8" standalone="no"?>
<!-- Created with Inkscape (http://www.inkscape.org/) -->

<svg
   width="35mm"
   height="20.840984mm"
   viewBox="0 0 35 20.840984"
   version="1.1"
   id="svg1024"
   inkscape:version="1.1.2 (0a00cf5339, 2022-02-04)"
   sodipodi:docname="window-wegde-boku-logo.svg"
   xmlns:inkscape="http://www.inkscape.org/namespaces/inkscape"
   xmlns:sodipodi="http://sodipodi.sourceforge.net/DTD/sodipodi-0.dtd"
   xmlns="http://www.w3.org/2000/svg"
   xmlns:svg="http://www.w3.org/2000/svg">
  <sodipodi:namedview
     id="namedview1026"
     pagecolor="#ffffff"
     bordercolor="#666666"
     borderopacity="1.0"
     inkscape:pageshadow="2"
     inkscape:pageopacity="0.0"
     inkscape:pagecheckerboard="0"
     inkscape:document-units="mm"
     showgrid="false"
     fit-margin-top="0"
     fit-margin-left="0"
     fit-margin-right="0"
     fit-margin-bottom="0"
     inkscape:zoom="4.7171113"
     inkscape:cx="23.743345"
     inkscape:cy="72.607996"
     inkscape:window-width="1712"
     inkscape:window-height="894"
     inkscape:window-x="0"
     inkscape:window-y="32"
     inkscape:window-maximized="1"
     inkscape:current-layer="text2857-3-5" />
  <defs
     id="defs1021" />
  <g
     inkscape:label="Layer 1"
     inkscape:groupmode="layer"
     id="layer1"
     transform="translate(-94.058979,-83.269261)">
    <g
       id="g5606"
       transform="matrix(1.5994851,0,0,1.5994851,-56.386956,-49.91868)">
      <g
         aria-label="window"
         id="text2857-5"
         style="font-weight:500;font-size:5.6981px;line-height:1.25;font-family:'Work Sans';-inkscape-font-specification:'Work Sans Medium';stroke-width:0.142452">
        <path
           d="m 98.22526,84.551333 h 0.66098 l -0.957281,2.84905 h -0.666678 l -0.71796,-2.113995 -0.678074,2.113995 h -0.666678 l -0.951582,-2.84905 h 0.655281 l 0.649583,2.250749 0.706565,-2.250749 h 0.609697 l 0.706564,2.250749 z"
           id="path831" />
        <path
           d="m 99.780839,84.072693 q -0.199433,0 -0.307697,-0.09687 -0.102566,-0.102566 -0.102566,-0.284905 0,-0.182339 0.102566,-0.279207 0.108264,-0.09687 0.307697,-0.09687 0.193735,0 0.296301,0.09687 0.10826,0.09687 0.10826,0.279207 0,0.182339 -0.10826,0.284905 -0.102566,0.09687 -0.296301,0.09687 z m 0.302001,0.47864 v 2.84905 h -0.609698 v -2.84905 z"
           id="path833" />
        <path
           d="m 101.03441,87.400383 v -2.84905 h 0.54132 l 0.0399,0.740753 -0.0798,-0.07977 q 0.0798,-0.245019 0.22793,-0.404566 0.15385,-0.165244 0.35898,-0.23932 0.21083,-0.07407 0.44445,-0.07407 0.302,0 0.54132,0.11966 0.24502,0.113962 0.38747,0.347584 0.14245,0.233622 0.14245,0.592603 v 1.846184 h -0.60969 v -1.658147 q 0,-0.42166 -0.17664,-0.581206 -0.17095,-0.165245 -0.43306,-0.165245 -0.18804,0 -0.36468,0.09117 -0.17664,0.08547 -0.2963,0.279207 -0.11396,0.193736 -0.11396,0.518527 v 1.515695 z"
           id="path835" />
        <path
           d="m 105.65557,87.457364 q -0.35329,0 -0.64389,-0.176641 -0.2849,-0.176641 -0.45015,-0.507131 -0.16524,-0.33049 -0.16524,-0.792036 0,-0.47864 0.17664,-0.80913 0.17664,-0.33049 0.47294,-0.501433 0.2963,-0.176641 0.64958,-0.176641 0.36468,0 0.6154,0.199433 0.25072,0.199434 0.33619,0.518528 l -0.0684,0.06268 V 83.26926 h 0.6097 v 4.131123 h -0.54132 l -0.0456,-0.774942 0.0798,0.0057 q -0.0399,0.256415 -0.18804,0.444452 -0.14815,0.182339 -0.37038,0.284905 -0.21653,0.09687 -0.46724,0.09687 z m 0.13105,-0.490037 q 0.24502,0 0.42166,-0.125358 0.17664,-0.125358 0.27351,-0.353282 0.0969,-0.227924 0.0969,-0.547018 0,-0.296301 -0.0969,-0.507131 -0.0969,-0.216527 -0.27351,-0.330489 -0.17094,-0.113962 -0.39886,-0.113962 -0.38178,0 -0.59261,0.262112 -0.21083,0.262113 -0.21083,0.723659 0,0.461546 0.20514,0.729357 0.20513,0.262112 0.5755,0.262112 z"
           id="path837" />
        <path
           d="m 109.37072,84.494352 q 0.41596,0 0.73506,0.176641 0.31909,0.176641 0.49573,0.512829 0.18234,0.33049 0.18234,0.792036 0,0.461546 -0.18234,0.797734 -0.17664,0.33049 -0.49573,0.507131 -0.3191,0.176641 -0.73506,0.176641 -0.41596,0 -0.73505,-0.176641 -0.3191,-0.176641 -0.50144,-0.507131 -0.18233,-0.336188 -0.18233,-0.797734 0,-0.461546 0.18233,-0.792036 0.18234,-0.336188 0.50144,-0.512829 0.31909,-0.176641 0.73505,-0.176641 z m 0,0.47864 q -0.25641,0 -0.43875,0.11966 -0.17664,0.113962 -0.27351,0.336188 -0.0969,0.222226 -0.0969,0.547018 0,0.319094 0.0969,0.547018 0.0969,0.222225 0.27351,0.341886 0.18234,0.113962 0.43875,0.113962 0.25642,0 0.43306,-0.113962 0.17664,-0.119661 0.27351,-0.341886 0.0969,-0.227924 0.0969,-0.547018 0,-0.324792 -0.0969,-0.547018 -0.0969,-0.222226 -0.27351,-0.336188 -0.17664,-0.11966 -0.43306,-0.11966 z"
           id="path839" />
        <path
           d="m 115.09103,84.551333 h 0.66098 l -0.95728,2.84905 h -0.66668 l -0.71796,-2.113995 -0.67807,2.113995 h -0.66668 l -0.95158,-2.84905 h 0.65528 l 0.64958,2.250749 0.70657,-2.250749 h 0.60969 l 0.70657,2.250749 z"
           id="path841" />
      </g>
      <path
         d="m 94.944031,91.118779 v 4.25176 c 0,0.130179 0.06076,0.173605 0.173555,0.173605 h 0.477236 c 0.112798,0 0.173555,0.06065 0.173555,0.173554 v 0.407867 c 0,0.112747 -0.06076,0.173504 -0.173555,0.173504 h -0.971803 c -0.364491,0 -0.56404,-0.199548 -0.56404,-0.564093 v -4.946028 c 0,-0.364387 0.199549,-0.563989 0.56404,-0.563989 h 0.971804 c 0.112798,0 0.173555,0.06076 0.173555,0.173503 v 0.407815 c 0,0.112849 -0.06076,0.173608 -0.173555,0.173608 h -0.511947 c -0.07809,-10e-7 -0.138845,0.06076 -0.138845,0.138894"
         id="path328-6"
         style="fill:#000000;fill-opacity:1;stroke:none;stroke-width:0.0974009;stroke-opacity:1" />
      <path
         d="m 114.21424,95.717698 c 0,-0.112902 0.0608,-0.173554 0.17355,-0.173554 h 0.29502 c 0.1128,0 0.17356,-0.04343 0.17356,-0.173605 v -4.217153 c 0,-0.130128 -0.0608,-0.173502 -0.17356,-0.173502 h -0.29502 c -0.11279,0 -0.17355,-0.06076 -0.17355,-0.173608 v -0.407814 c 0,-0.112746 0.0608,-0.173503 0.17355,-0.173503 h 0.4252 c 0.78964,0 1.12803,0.746261 1.12803,1.492416 0,0.607468 -0.21693,1.145411 -0.62474,1.388439 -0.0434,0.02605 -0.0695,0.06942 -0.0695,0.121515 0,0.04332 0.0261,0.09547 0.0695,0.12141 0.37315,0.243029 0.62474,0.737595 0.62474,1.431763 0,0.772306 -0.30368,1.518567 -1.04122,1.518567 h -0.512 c -0.1128,0 -0.17356,-0.06076 -0.17356,-0.173504 z"
         id="path92-7"
         style="fill:#000000;fill-opacity:1;stroke:none;stroke-width:0.0974009;stroke-opacity:1" />
      <g
         aria-label="wedge"
         id="text2857-3-5"
         style="font-weight:500;font-size:5.6981px;line-height:1.25;font-family:'Work Sans';-inkscape-font-specification:'Work Sans Medium';fill:#000000;stroke-width:0.142452"
         transform="translate(59.46225)">
        <path
           d="m 40.54185,91.959666 h 0.660979 l -0.95728,2.84905 h -0.666678 l -0.717961,-2.113995 -0.678074,2.113995 h -0.666677 l -0.951583,-2.84905 h 0.655281 l 0.649584,2.250749 0.706564,-2.250749 h 0.609697 l 0.706564,2.250749 z"
           id="path844" />
        <path
           d="m 42.957269,94.865697 q -0.427357,0 -0.752149,-0.176641 -0.324792,-0.176641 -0.507131,-0.507131 -0.176641,-0.336188 -0.176641,-0.797734 0,-0.461546 0.176641,-0.792036 0.182339,-0.336188 0.501433,-0.512829 0.319093,-0.176641 0.723659,-0.176641 0.415961,0 0.706564,0.170943 0.290603,0.170943 0.444452,0.467244 0.153848,0.296301 0.153848,0.672376 0,0.102566 -0.0057,0.193735 -0.0057,0.09117 -0.01709,0.159547 h -2.290636 v -0.467244 h 2.022825 l -0.301999,0.09117 q 0,-0.38747 -0.193735,-0.592602 -0.193736,-0.21083 -0.529924,-0.21083 -0.245018,0 -0.427357,0.113962 -0.182339,0.113962 -0.279207,0.341886 -0.09687,0.222226 -0.09687,0.547018 0,0.319094 0.102566,0.541319 0.102566,0.222226 0.290603,0.336188 0.188037,0.113962 0.444452,0.113962 0.284905,0 0.461546,-0.108264 0.176641,-0.108263 0.279207,-0.301999 l 0.484338,0.227924 q -0.102565,0.205132 -0.279206,0.35898 -0.170943,0.148151 -0.410264,0.227924 -0.23932,0.07977 -0.524225,0.07977 z"
           id="path846" />
        <path
           d="m 46.091219,94.865697 q -0.353282,0 -0.643885,-0.176641 -0.284905,-0.176641 -0.45015,-0.507131 -0.165245,-0.33049 -0.165245,-0.792036 0,-0.478641 0.176641,-0.80913 0.176641,-0.33049 0.472942,-0.501433 0.296301,-0.176641 0.649584,-0.176641 0.364678,0 0.615394,0.199433 0.250717,0.199434 0.336188,0.518527 l -0.06838,0.06268 v -2.005731 h 0.609697 v 4.131123 h -0.54132 l -0.04558,-0.774942 0.07977,0.0057 q -0.03989,0.256415 -0.188037,0.444452 -0.148151,0.182339 -0.370377,0.284905 -0.216528,0.09687 -0.467244,0.09687 z m 0.131056,-0.490037 q 0.245019,0 0.42166,-0.125358 0.176641,-0.125358 0.273508,-0.353282 0.09687,-0.227924 0.09687,-0.547018 0,-0.296301 -0.09687,-0.507131 -0.09687,-0.216528 -0.273508,-0.33049 -0.170943,-0.113962 -0.398867,-0.113962 -0.381773,0 -0.592603,0.262113 -0.210829,0.262113 -0.210829,0.723659 0,0.461546 0.205131,0.729357 0.205132,0.262112 0.575508,0.262112 z"
           id="path848" />
        <path
           d="m 51.07705,91.361365 0.09687,0.478641 q -0.01709,0 -0.03419,0 -0.01709,-0.0057 -0.03419,-0.0057 -0.273509,0 -0.415962,0.11966 -0.142452,0.113962 -0.142452,0.336188 l -0.296301,-0.136755 q 0,-0.227924 0.09687,-0.404565 0.09687,-0.182339 0.273509,-0.284905 0.182339,-0.102566 0.410263,-0.102566 0.0114,0 0.02279,0 0.0114,0 0.02279,0 z m -0.9003,3.002899 q 0.433056,0 0.672376,0.193735 0.23932,0.188038 0.23932,0.524226 0,0.296301 -0.188037,0.507131 -0.188037,0.216527 -0.512829,0.330489 -0.319094,0.113962 -0.735055,0.113962 -0.700866,0 -1.037054,-0.216527 -0.336188,-0.216528 -0.336188,-0.54132 0,-0.227924 0.159547,-0.398867 0.165245,-0.170943 0.552716,-0.193735 l -0.03419,0.09117 q -0.23932,-0.05128 -0.387471,-0.182339 -0.142452,-0.136754 -0.142452,-0.381773 0,-0.245018 0.188037,-0.415961 0.188037,-0.170943 0.529923,-0.199433 l 0.319094,0.153848 h -0.06838 q -0.262113,0.02279 -0.370377,0.11966 -0.108264,0.09687 -0.108264,0.216528 0,0.142453 0.102566,0.21083 0.108264,0.06838 0.301999,0.06838 z m -0.524225,1.213695 q 0.313396,0 0.512829,-0.06268 0.205132,-0.05698 0.301999,-0.153848 0.102566,-0.09117 0.102566,-0.205132 0,-0.131056 -0.108264,-0.21083 -0.102565,-0.07977 -0.376074,-0.07977 h -0.917394 q -0.159547,0 -0.267811,0.07977 -0.108264,0.08547 -0.108264,0.227924 0,0.188038 0.227924,0.296301 0.227924,0.108264 0.632489,0.108265 z m -0.02279,-3.675274 q 0.376074,0 0.649583,0.11966 0.279207,0.11966 0.427358,0.336188 0.153848,0.216528 0.153848,0.507131 0,0.290603 -0.153848,0.507131 -0.148151,0.216527 -0.427358,0.336188 -0.273509,0.11966 -0.649583,0.11966 -0.592603,0 -0.911696,-0.262113 -0.313396,-0.267811 -0.313396,-0.700866 0,-0.290603 0.153849,-0.507131 0.153849,-0.216528 0.427357,-0.336188 0.279207,-0.11966 0.643886,-0.11966 z m 0,0.427357 q -0.262113,0 -0.438754,0.148151 -0.170943,0.142452 -0.170943,0.387471 0,0.245018 0.170943,0.393169 0.176641,0.14815 0.438754,0.14815 0.26781,0 0.438753,-0.14815 0.176642,-0.148151 0.176642,-0.393169 0,-0.245019 -0.176642,-0.387471 -0.170943,-0.148151 -0.438753,-0.148151 z"
           id="path850" />
        <path
           d="m 52.900436,94.865697 q -0.427357,0 -0.752149,-0.176641 -0.324792,-0.176641 -0.507131,-0.507131 -0.176641,-0.336188 -0.176641,-0.797734 0,-0.461546 0.176641,-0.792036 0.182339,-0.336188 0.501433,-0.512829 0.319094,-0.176641 0.723659,-0.176641 0.415961,0 0.706564,0.170943 0.290603,0.170943 0.444452,0.467244 0.153849,0.296301 0.153849,0.672376 0,0.102566 -0.0057,0.193735 -0.0057,0.09117 -0.0171,0.159547 h -2.290636 v -0.467244 h 2.022826 l -0.302,0.09117 q 0,-0.38747 -0.193735,-0.592602 -0.193736,-0.21083 -0.529923,-0.21083 -0.245019,0 -0.427358,0.113962 -0.182339,0.113962 -0.279207,0.341886 -0.09687,0.222226 -0.09687,0.547018 0,0.319094 0.102566,0.541319 0.102566,0.222226 0.290603,0.336188 0.188038,0.113962 0.444452,0.113962 0.284905,0 0.461546,-0.108264 0.176641,-0.108263 0.279207,-0.301999 l 0.484339,0.227924 q -0.102566,0.205132 -0.279207,0.35898 -0.170943,0.148151 -0.410263,0.227924 -0.239321,0.07977 -0.524226,0.07977 z"
           id="path852" />
      </g>
    </g>
    <text
       xml:space="preserve"
       style="font-size:3.46721px;line-height:1.25;font-family:'Work Sans';-inkscape-font-specification:'Work Sans';text-align:center;text-anchor:middle;fill:#e6641e;fill-opacity:1;stroke-width:0.2364"
       x="48.117172"
       y="100.83655"
       id="text14508-7"><tspan
         sodipodi:role="line"
         x="48.117172"
         y="100.83655"
         style="font-style:normal;font-variant:normal;font-weight:500;font-stretch:normal;font-size:3.46721px;font-family:'Work Sans';-inkscape-font-specification:'Work Sans Medium';text-align:center;text-anchor:middle;fill:#e6641e;fill-opacity:1;stroke-width:0.2364"
         id="tspan25254-3" /></text>
  </g>
</svg>
